<svg xmlns="http://www.w3.org/2000/svg" viewBox="0 0 211.28 58.66"><defs><style>.cls-1{fill:#27aae1;}.cls-2{fill:#343434;}</style></defs><g id="Layer_2" data-name="Layer 2"><g id="Layer_1-2" data-name="Layer 1"><path class="cls-1" d="M25.68,32l-2.86-7H9.63L6.77,32H0L13.19,1h6.25L32.63,32ZM16.23,8.9,12.09,19h8.27Z"/><path class="cls-1" d="M65.28,32V18.7c0-3.21-1.41-4.85-3.93-4.85s-4.07,1.64-4.07,4.85V32h-6V18.7c0-3.21-1.41-4.85-3.93-4.85s-4.07,1.64-4.07,4.85V32h-7V8h6v3.4c1.58-2,3.65-3.85,7.12-3.85a7.23,7.23,0,0,1,6.8,3.81,10,10,0,0,1,7.93-3.81c5.09,0,8.15,3.05,8.15,8.82V32Z"/><path class="cls-1" d="M99.19,22H82.89a5.45,5.45,0,0,0,5.72,4.67,7.62,7.62,0,0,0,5.69-2.45l3.8,3.43a11.62,11.62,0,0,1-9.57,4.45c-7,0-12.25-5-12.25-12.32v-.09c0-6.81,4.77-12.42,11.59-12.42,7.83,0,11.41,6.19,11.41,13v.09C99.28,21,99.24,21.38,99.19,22ZM88,12.93c-2.8,0-4.62,2-5.16,5.07H93.06C92.66,15,90.88,12.93,88,12.93Z"/><path class="cls-1" d="M118.28,32V18.7c0-3.21-1.45-4.85-3.93-4.85s-4.07,1.64-4.07,4.85V32h-7V8h7v3.4c1.55-2,3.54-3.85,7-3.85,5.09,0,8,3.41,8,8.91V32Z"/><path class="cls-1" d="M147.28,32V28.26A8.61,8.61,0,0,1,140,32.07c-5.47,0-10.69-4.29-10.69-12.13v-.09c0-7.84,5.13-12.13,10.69-12.13a9,9,0,0,1,7.31,3.51V0h7V32Zm1-12.15c0-4.09-2.71-6.8-6-6.8s-6,2.66-6,6.8v.09c0,4.1,2.76,6.81,6,6.81s6-2.71,6-6.81Z"/><path class="cls-1" d="M182.2,22H165.89a5.45,5.45,0,0,0,5.72,4.67,7.62,7.62,0,0,0,5.69-2.45l3.8,3.43a11.62,11.62,0,0,1-9.57,4.45c-7,0-12.25-5-12.25-12.32v-.09c0-6.81,4.77-12.42,11.59-12.42,7.83,0,11.41,6.19,11.41,13v.09C182.28,21,182.24,21.38,182.2,22Zm-11.82-9.07c-2.8,0-4.62,2-5.16,5.07h10.19C175,15,173.23,12.93,170.38,12.93Z"/><path class="cls-1" d="M203.28,32V28.26A8.61,8.61,0,0,1,196,32.07c-5.48,0-10.69-4.29-10.69-12.13v-.09c0-7.84,5.13-12.13,10.69-12.13a9,9,0,0,1,7.31,3.51V0h7V32Zm0-12.15c0-4.09-2.71-6.8-6-6.8s-6,2.66-6,6.8v.09c0,4.1,2.76,6.81,6,6.81s6-2.71,6-6.81Z"/><path class="cls-2" d="M85.28,43V58h-4V43h-6V39h15v4Z"/><path class="cls-2" d="M98.28,58V56.48a5.35,5.35,0,0,1-4.21,1.78c-2.63,0-4.79-1.52-4.79-4.31v-.08c0-3,2.31-4.44,5.61-4.44a10,10,0,0,1,3.39.57v-.25c0-1.66-1.07-2.58-3.15-2.58a11.23,11.23,0,0,0-4,.76l-1-3a13.42,13.42,0,0,1,5.69-1.13c4.55,0,6.55,2.26,6.55,6.07V58Zm0-5.6a5.75,5.75,0,0,0-2.4-.5c-1.61,0-2.6.65-2.6,1.84v0c0,1,.84,1.6,2.06,1.6,1.75,0,2.94-1,2.94-2.32Z"/><path class="cls-2" d="M108.92,50.94,104.16,44h4.28l2.8,4.36Zm4.14-.3L118.12,58h-4.29L111,53.61Z"/><path class="cls-2" d="M139.22,58l-3.84-6h-3.1v6h-4V40h8.22c4.24,0,6.78,2.24,6.78,5.94v-.45a5.81,5.81,0,0,1-3.83,5.81l4.37,6.7Zm.06-12.51c0-1.64-1.17-2.49-3.09-2.49h-3.91v5h4c1.91,0,3-1,3-2.46Z"/><path class="cls-2" d="M159.23,52H149.3a3.31,3.31,0,0,0,3.49,2.76,4.69,4.69,0,0,0,3.46-1.45l2.31,2a7.56,7.56,0,0,1-13.28-4.65v-.06a7.05,7.05,0,0,1,7.06-7.33c4.76,0,6.94,3.65,6.94,7.65v0C159.28,51.4,159.26,51.63,159.23,52Zm-7.38-5c-1.66,0-2.74,1.19-3,3h6C154.58,48.21,153.53,47,151.85,47Z"/><path class="cls-2" d="M166.24,58.16c-2.36,0-4-.94-4-4.08V47h-2V44h2V40h4v4h3v3h-3v6c0,.92.37,1.37,1.19,1.37a3.53,3.53,0,0,0,1.81-.5v3.49A5.69,5.69,0,0,1,166.24,58.16Z"/><path class="cls-2" d="M180.28,58V56.09a5,5,0,0,1-4.17,2.26c-3.05,0-4.83-2-4.83-5.23V44h4v7.86c0,1.89.91,2.87,2.46,2.87s2.54-1,2.54-2.87V44h4V58Z"/><path class="cls-2" d="M195.67,48c-2.66-.17-4.39,4.8-4.39,4.8V58h-4V44h4v2.75c.92-2,2.23-3.21,4-3.1V48Z"/><path class="cls-2" d="M207.28,58V50.14c0-1.89-.91-2.87-2.46-2.87s-2.54,1-2.54,2.87V58h-4V44h4v2a5.06,5.06,0,0,1,4.17-2.25c3.05,0,4.83,2,4.83,5.2V58Z"/><polygon class="cls-1" points="103.4 51.88 106.83 55.33 116.86 43.25 106.82 58.66 103.4 51.88"/></g></g></svg>